<svg xmlns="http://www.w3.org/2000/svg" viewBox="0 0 300 80" width="300" height="80">
  <defs>
    <linearGradient id="g-car-ld" x1="10" y1="53" x2="71" y2="27" gradientUnits="userSpaceOnUse">
      <stop offset="0%"   stop-color="#1d4ed8"/>
      <stop offset="55%"  stop-color="#3b82f6"/>
      <stop offset="100%" stop-color="#93c5fd"/>
    </linearGradient>
    <linearGradient id="g-share-ld" x1="0%" y1="0%" x2="100%" y2="0%">
      <stop offset="0%"   stop-color="#60a5fa"/>
      <stop offset="100%" stop-color="#93c5fd"/>
    </linearGradient>
  </defs>

  <!-- Icon mark -->
  <rect x="0" y="0" width="80" height="80" rx="18" fill="#0c1220"/>

  <path
    d="M 10,46 L 10,41 L 13,39
       C 17,34 20,29 26,28
       C 30,26 46,26 52,27
       C 58,27 63,32 65,36
       L 69,36 L 71,41 L 70,46 L 65,46
       Q 57,61 49,46
       L 29,46
       Q 20,61 11,46
       Z"
    fill="none"
    stroke="url(#g-car-ld)"
    stroke-width="3.5"
    stroke-linecap="round"
    stroke-linejoin="round"/>

  <!-- Wordmark -->
  <text
    x="96" y="47"
    font-family="'Inter', -apple-system, BlinkMacSystemFont, 'Segoe UI', system-ui, sans-serif"
    font-weight="800"
    font-size="30"
    letter-spacing="-0.8">
    <tspan fill="#ffffff">Fleet</tspan><tspan fill="url(#g-share-ld)">Share</tspan>
  </text>

  <!-- Tagline -->
  <circle cx="93" cy="60" r="2" fill="#60a5fa" opacity="0.5"/>
  <text
    x="100" y="63.5"
    font-family="'Inter', -apple-system, BlinkMacSystemFont, 'Segoe UI', system-ui, sans-serif"
    font-weight="500"
    font-size="8.5"
    letter-spacing="3.5"
    fill="rgba(255,255,255,0.38)">COMPANY CAR SHARING</text>
</svg>
